<?xml version="1.0" encoding="UTF-8"?>
<svg width="928" height="228" viewBox="0 0 928 228" fill="none" xmlns="http://www.w3.org/2000/svg" role="img" aria-labelledby="title desc">
  <title id="title">Tokscale AI token heatmap</title>
  <desc id="desc">Daily Tokscale token usage in a GitHub-style heatmap.</desc>
  <style>
    .title { fill: #24292f; font: 500 20px -apple-system,BlinkMacSystemFont,"Segoe UI",sans-serif; }
    .axis { fill: #24292f; font: 400 14px -apple-system,BlinkMacSystemFont,"Segoe UI",sans-serif; }
    .muted { fill: #57606a; font: 400 14px -apple-system,BlinkMacSystemFont,"Segoe UI",sans-serif; }
  </style>
  <rect x="0.5" y="0.5" width="927" height="227" rx="8" fill="#ffffff" stroke="#d0d7de"/>
  <text x="58" y="34" class="title">15,571,034,060 AI tokens in the last year</text>
  <text x="66" y="54" class="axis">Jul</text>
  <text x="80" y="54" class="axis">Aug</text>
  <text x="150" y="54" class="axis">Sep</text>
  <text x="206" y="54" class="axis">Oct</text>
  <text x="262" y="54" class="axis">Nov</text>
  <text x="332" y="54" class="axis">Dec</text>
  <text x="388" y="54" class="axis">Jan</text>
  <text x="458" y="54" class="axis">Feb</text>
  <text x="514" y="54" class="axis">Mar</text>
  <text x="570" y="54" class="axis">Apr</text>
  <text x="626" y="54" class="axis">May</text>
  <text x="696" y="54" class="axis">Jun</text>
  <text x="752" y="54" class="axis">Jul</text>
  <text x="28" y="120" class="axis">Mon</text>
  <text x="28" y="148" class="axis">Wed</text>
  <text x="33" y="176" class="axis">Fri</text>
  <rect x="66" y="82" width="11" height="11" rx="2" fill="#ebedf0"><title>2025-07-20: 0 tokens</title></rect>
  <rect x="66" y="96" width="11" height="11" rx="2" fill="#ebedf0"><title>2025-07-21: 0 tokens</title></rect>
  <rect x="66" y="110" width="11" height="11" rx="2" fill="#ebedf0"><title>2025-07-22: 0 tokens</title></rect>
  <rect x="66" y="124" width="11" height="11" rx="2" fill="#ebedf0"><title>2025-07-23: 0 tokens</title></rect>
  <rect x="66" y="138" width="11" height="11" rx="2" fill="#ebedf0"><title>2025-07-24: 0 tokens</title></rect>
  <rect x="66" y="152" width="11" height="11" rx="2" fill="#ebedf0"><title>2025-07-25: 0 tokens</title></rect>
  <rect x="66" y="166" width="11" height="11" rx="2" fill="#ebedf0"><title>2025-07-26: 0 tokens</title></rect>
  <rect x="80" y="82" width="11" height="11" rx="2" fill="#ebedf0"><title>2025-07-27: 0 tokens</title></rect>
  <rect x="80" y="96" width="11" height="11" rx="2" fill="#ebedf0"><title>2025-07-28: 0 tokens</title></rect>
  <rect x="80" y="110" width="11" height="11" rx="2" fill="#ebedf0"><title>2025-07-29: 0 tokens</title></rect>
  <rect x="80" y="124" width="11" height="11" rx="2" fill="#ebedf0"><title>2025-07-30: 0 tokens</title></rect>
  <rect x="80" y="138" width="11" height="11" rx="2" fill="#ebedf0"><title>2025-07-31: 0 tokens</title></rect>
  <rect x="80" y="152" width="11" height="11" rx="2" fill="#ebedf0"><title>2025-08-01: 0 tokens</title></rect>
  <rect x="80" y="166" width="11" height="11" rx="2" fill="#ebedf0"><title>2025-08-02: 0 tokens</title></rect>
  <rect x="94" y="82" width="11" height="11" rx="2" fill="#ebedf0"><title>2025-08-03: 0 tokens</title></rect>
  <rect x="94" y="96" width="11" height="11" rx="2" fill="#ebedf0"><title>2025-08-04: 0 tokens</title></rect>
  <rect x="94" y="110" width="11" height="11" rx="2" fill="#ebedf0"><title>2025-08-05: 0 tokens</title></rect>
  <rect x="94" y="124" width="11" height="11" rx="2" fill="#ebedf0"><title>2025-08-06: 0 tokens</title></rect>
  <rect x="94" y="138" width="11" height="11" rx="2" fill="#ebedf0"><title>2025-08-07: 0 tokens</title></rect>
  <rect x="94" y="152" width="11" height="11" rx="2" fill="#ebedf0"><title>2025-08-08: 0 tokens</title></rect>
  <rect x="94" y="166" width="11" height="11" rx="2" fill="#ebedf0"><title>2025-08-09: 0 tokens</title></rect>
  <rect x="108" y="82" width="11" height="11" rx="2" fill="#ebedf0"><title>2025-08-10: 0 tokens</title></rect>
  <rect x="108" y="96" width="11" height="11" rx="2" fill="#ebedf0"><title>2025-08-11: 0 tokens</title></rect>
  <rect x="108" y="110" width="11" height="11" rx="2" fill="#ebedf0"><title>2025-08-12: 0 tokens</title></rect>
  <rect x="108" y="124" width="11" height="11" rx="2" fill="#ebedf0"><title>2025-08-13: 0 tokens</title></rect>
  <rect x="108" y="138" width="11" height="11" rx="2" fill="#ebedf0"><title>2025-08-14: 0 tokens</title></rect>
  <rect x="108" y="152" width="11" height="11" rx="2" fill="#ebedf0"><title>2025-08-15: 0 tokens</title></rect>
  <rect x="108" y="166" width="11" height="11" rx="2" fill="#ebedf0"><title>2025-08-16: 0 tokens</title></rect>
  <rect x="122" y="82" width="11" height="11" rx="2" fill="#ebedf0"><title>2025-08-17: 0 tokens</title></rect>
  <rect x="122" y="96" width="11" height="11" rx="2" fill="#ebedf0"><title>2025-08-18: 0 tokens</title></rect>
  <rect x="122" y="110" width="11" height="11" rx="2" fill="#ebedf0"><title>2025-08-19: 0 tokens</title></rect>
  <rect x="122" y="124" width="11" height="11" rx="2" fill="#ebedf0"><title>2025-08-20: 0 tokens</title></rect>
  <rect x="122" y="138" width="11" height="11" rx="2" fill="#ebedf0"><title>2025-08-21: 0 tokens</title></rect>
  <rect x="122" y="152" width="11" height="11" rx="2" fill="#ebedf0"><title>2025-08-22: 0 tokens</title></rect>
  <rect x="122" y="166" width="11" height="11" rx="2" fill="#ebedf0"><title>2025-08-23: 0 tokens</title></rect>
  <rect x="136" y="82" width="11" height="11" rx="2" fill="#ebedf0"><title>2025-08-24: 0 tokens</title></rect>
  <rect x="136" y="96" width="11" height="11" rx="2" fill="#ebedf0"><title>2025-08-25: 0 tokens</title></rect>
  <rect x="136" y="110" width="11" height="11" rx="2" fill="#ebedf0"><title>2025-08-26: 0 tokens</title></rect>
  <rect x="136" y="124" width="11" height="11" rx="2" fill="#ebedf0"><title>2025-08-27: 0 tokens</title></rect>
  <rect x="136" y="138" width="11" height="11" rx="2" fill="#ebedf0"><title>2025-08-28: 0 tokens</title></rect>
  <rect x="136" y="152" width="11" height="11" rx="2" fill="#ebedf0"><title>2025-08-29: 0 tokens</title></rect>
  <rect x="136" y="166" width="11" height="11" rx="2" fill="#ebedf0"><title>2025-08-30: 0 tokens</title></rect>
  <rect x="150" y="82" width="11" height="11" rx="2" fill="#ebedf0"><title>2025-08-31: 0 tokens</title></rect>
  <rect x="150" y="96" width="11" height="11" rx="2" fill="#ebedf0"><title>2025-09-01: 0 tokens</title></rect>
  <rect x="150" y="110" width="11" height="11" rx="2" fill="#ebedf0"><title>2025-09-02: 0 tokens</title></rect>
  <rect x="150" y="124" width="11" height="11" rx="2" fill="#ebedf0"><title>2025-09-03: 0 tokens</title></rect>
  <rect x="150" y="138" width="11" height="11" rx="2" fill="#ebedf0"><title>2025-09-04: 0 tokens</title></rect>
  <rect x="150" y="152" width="11" height="11" rx="2" fill="#ebedf0"><title>2025-09-05: 0 tokens</title></rect>
  <rect x="150" y="166" width="11" height="11" rx="2" fill="#ebedf0"><title>2025-09-06: 0 tokens</title></rect>
  <rect x="164" y="82" width="11" height="11" rx="2" fill="#ebedf0"><title>2025-09-07: 0 tokens</title></rect>
  <rect x="164" y="96" width="11" height="11" rx="2" fill="#ebedf0"><title>2025-09-08: 0 tokens</title></rect>
  <rect x="164" y="110" width="11" height="11" rx="2" fill="#ebedf0"><title>2025-09-09: 0 tokens</title></rect>
  <rect x="164" y="124" width="11" height="11" rx="2" fill="#ebedf0"><title>2025-09-10: 0 tokens</title></rect>
  <rect x="164" y="138" width="11" height="11" rx="2" fill="#ebedf0"><title>2025-09-11: 0 tokens</title></rect>
  <rect x="164" y="152" width="11" height="11" rx="2" fill="#ebedf0"><title>2025-09-12: 0 tokens</title></rect>
  <rect x="164" y="166" width="11" height="11" rx="2" fill="#ebedf0"><title>2025-09-13: 0 tokens</title></rect>
  <rect x="178" y="82" width="11" height="11" rx="2" fill="#ebedf0"><title>2025-09-14: 0 tokens</title></rect>
  <rect x="178" y="96" width="11" height="11" rx="2" fill="#ebedf0"><title>2025-09-15: 0 tokens</title></rect>
  <rect x="178" y="110" width="11" height="11" rx="2" fill="#ebedf0"><title>2025-09-16: 0 tokens</title></rect>
  <rect x="178" y="124" width="11" height="11" rx="2" fill="#ebedf0"><title>2025-09-17: 0 tokens</title></rect>
  <rect x="178" y="138" width="11" height="11" rx="2" fill="#ebedf0"><title>2025-09-18: 0 tokens</title></rect>
  <rect x="178" y="152" width="11" height="11" rx="2" fill="#ebedf0"><title>2025-09-19: 0 tokens</title></rect>
  <rect x="178" y="166" width="11" height="11" rx="2" fill="#ebedf0"><title>2025-09-20: 0 tokens</title></rect>
  <rect x="192" y="82" width="11" height="11" rx="2" fill="#ebedf0"><title>2025-09-21: 0 tokens</title></rect>
  <rect x="192" y="96" width="11" height="11" rx="2" fill="#ebedf0"><title>2025-09-22: 0 tokens</title></rect>
  <rect x="192" y="110" width="11" height="11" rx="2" fill="#ebedf0"><title>2025-09-23: 0 tokens</title></rect>
  <rect x="192" y="124" width="11" height="11" rx="2" fill="#ebedf0"><title>2025-09-24: 0 tokens</title></rect>
  <rect x="192" y="138" width="11" height="11" rx="2" fill="#ebedf0"><title>2025-09-25: 0 tokens</title></rect>
  <rect x="192" y="152" width="11" height="11" rx="2" fill="#ebedf0"><title>2025-09-26: 0 tokens</title></rect>
  <rect x="192" y="166" width="11" height="11" rx="2" fill="#ebedf0"><title>2025-09-27: 0 tokens</title></rect>
  <rect x="206" y="82" width="11" height="11" rx="2" fill="#ebedf0"><title>2025-09-28: 0 tokens</title></rect>
  <rect x="206" y="96" width="11" height="11" rx="2" fill="#ebedf0"><title>2025-09-29: 0 tokens</title></rect>
  <rect x="206" y="110" width="11" height="11" rx="2" fill="#ebedf0"><title>2025-09-30: 0 tokens</title></rect>
  <rect x="206" y="124" width="11" height="11" rx="2" fill="#ebedf0"><title>2025-10-01: 0 tokens</title></rect>
  <rect x="206" y="138" width="11" height="11" rx="2" fill="#ebedf0"><title>2025-10-02: 0 tokens</title></rect>
  <rect x="206" y="152" width="11" height="11" rx="2" fill="#ebedf0"><title>2025-10-03: 0 tokens</title></rect>
  <rect x="206" y="166" width="11" height="11" rx="2" fill="#ebedf0"><title>2025-10-04: 0 tokens</title></rect>
  <rect x="220" y="82" width="11" height="11" rx="2" fill="#ebedf0"><title>2025-10-05: 0 tokens</title></rect>
  <rect x="220" y="96" width="11" height="11" rx="2" fill="#ebedf0"><title>2025-10-06: 0 tokens</title></rect>
  <rect x="220" y="110" width="11" height="11" rx="2" fill="#ebedf0"><title>2025-10-07: 0 tokens</title></rect>
  <rect x="220" y="124" width="11" height="11" rx="2" fill="#ebedf0"><title>2025-10-08: 0 tokens</title></rect>
  <rect x="220" y="138" width="11" height="11" rx="2" fill="#ebedf0"><title>2025-10-09: 0 tokens</title></rect>
  <rect x="220" y="152" width="11" height="11" rx="2" fill="#ebedf0"><title>2025-10-10: 0 tokens</title></rect>
  <rect x="220" y="166" width="11" height="11" rx="2" fill="#ebedf0"><title>2025-10-11: 0 tokens</title></rect>
  <rect x="234" y="82" width="11" height="11" rx="2" fill="#ebedf0"><title>2025-10-12: 0 tokens</title></rect>
  <rect x="234" y="96" width="11" height="11" rx="2" fill="#ebedf0"><title>2025-10-13: 0 tokens</title></rect>
  <rect x="234" y="110" width="11" height="11" rx="2" fill="#ebedf0"><title>2025-10-14: 0 tokens</title></rect>
  <rect x="234" y="124" width="11" height="11" rx="2" fill="#ebedf0"><title>2025-10-15: 0 tokens</title></rect>
  <rect x="234" y="138" width="11" height="11" rx="2" fill="#ebedf0"><title>2025-10-16: 0 tokens</title></rect>
  <rect x="234" y="152" width="11" height="11" rx="2" fill="#ebedf0"><title>2025-10-17: 0 tokens</title></rect>
  <rect x="234" y="166" width="11" height="11" rx="2" fill="#ebedf0"><title>2025-10-18: 0 tokens</title></rect>
  <rect x="248" y="82" width="11" height="11" rx="2" fill="#ebedf0"><title>2025-10-19: 0 tokens</title></rect>
  <rect x="248" y="96" width="11" height="11" rx="2" fill="#ebedf0"><title>2025-10-20: 0 tokens</title></rect>
  <rect x="248" y="110" width="11" height="11" rx="2" fill="#ebedf0"><title>2025-10-21: 0 tokens</title></rect>
  <rect x="248" y="124" width="11" height="11" rx="2" fill="#ebedf0"><title>2025-10-22: 0 tokens</title></rect>
  <rect x="248" y="138" width="11" height="11" rx="2" fill="#ebedf0"><title>2025-10-23: 0 tokens</title></rect>
  <rect x="248" y="152" width="11" height="11" rx="2" fill="#ebedf0"><title>2025-10-24: 0 tokens</title></rect>
  <rect x="248" y="166" width="11" height="11" rx="2" fill="#ebedf0"><title>2025-10-25: 0 tokens</title></rect>
  <rect x="262" y="82" width="11" height="11" rx="2" fill="#ebedf0"><title>2025-10-26: 0 tokens</title></rect>
  <rect x="262" y="96" width="11" height="11" rx="2" fill="#ebedf0"><title>2025-10-27: 0 tokens</title></rect>
  <rect x="262" y="110" width="11" height="11" rx="2" fill="#ebedf0"><title>2025-10-28: 0 tokens</title></rect>
  <rect x="262" y="124" width="11" height="11" rx="2" fill="#ebedf0"><title>2025-10-29: 0 tokens</title></rect>
  <rect x="262" y="138" width="11" height="11" rx="2" fill="#ebedf0"><title>2025-10-30: 0 tokens</title></rect>
  <rect x="262" y="152" width="11" height="11" rx="2" fill="#ebedf0"><title>2025-10-31: 0 tokens</title></rect>
  <rect x="262" y="166" width="11" height="11" rx="2" fill="#ebedf0"><title>2025-11-01: 0 tokens</title></rect>
  <rect x="276" y="82" width="11" height="11" rx="2" fill="#ebedf0"><title>2025-11-02: 0 tokens</title></rect>
  <rect x="276" y="96" width="11" height="11" rx="2" fill="#ebedf0"><title>2025-11-03: 0 tokens</title></rect>
  <rect x="276" y="110" width="11" height="11" rx="2" fill="#ebedf0"><title>2025-11-04: 0 tokens</title></rect>
  <rect x="276" y="124" width="11" height="11" rx="2" fill="#ebedf0"><title>2025-11-05: 0 tokens</title></rect>
  <rect x="276" y="138" width="11" height="11" rx="2" fill="#ebedf0"><title>2025-11-06: 0 tokens</title></rect>
  <rect x="276" y="152" width="11" height="11" rx="2" fill="#ebedf0"><title>2025-11-07: 0 tokens</title></rect>
  <rect x="276" y="166" width="11" height="11" rx="2" fill="#ebedf0"><title>2025-11-08: 0 tokens</title></rect>
  <rect x="290" y="82" width="11" height="11" rx="2" fill="#ebedf0"><title>2025-11-09: 0 tokens</title></rect>
  <rect x="290" y="96" width="11" height="11" rx="2" fill="#ebedf0"><title>2025-11-10: 0 tokens</title></rect>
  <rect x="290" y="110" width="11" height="11" rx="2" fill="#ebedf0"><title>2025-11-11: 0 tokens</title></rect>
  <rect x="290" y="124" width="11" height="11" rx="2" fill="#ebedf0"><title>2025-11-12: 0 tokens</title></rect>
  <rect x="290" y="138" width="11" height="11" rx="2" fill="#ebedf0"><title>2025-11-13: 0 tokens</title></rect>
  <rect x="290" y="152" width="11" height="11" rx="2" fill="#ebedf0"><title>2025-11-14: 0 tokens</title></rect>
  <rect x="290" y="166" width="11" height="11" rx="2" fill="#ebedf0"><title>2025-11-15: 0 tokens</title></rect>
  <rect x="304" y="82" width="11" height="11" rx="2" fill="#ebedf0"><title>2025-11-16: 0 tokens</title></rect>
  <rect x="304" y="96" width="11" height="11" rx="2" fill="#ebedf0"><title>2025-11-17: 0 tokens</title></rect>
  <rect x="304" y="110" width="11" height="11" rx="2" fill="#ebedf0"><title>2025-11-18: 0 tokens</title></rect>
  <rect x="304" y="124" width="11" height="11" rx="2" fill="#ebedf0"><title>2025-11-19: 0 tokens</title></rect>
  <rect x="304" y="138" width="11" height="11" rx="2" fill="#ebedf0"><title>2025-11-20: 0 tokens</title></rect>
  <rect x="304" y="152" width="11" height="11" rx="2" fill="#ebedf0"><title>2025-11-21: 0 tokens</title></rect>
  <rect x="304" y="166" width="11" height="11" rx="2" fill="#ebedf0"><title>2025-11-22: 0 tokens</title></rect>
  <rect x="318" y="82" width="11" height="11" rx="2" fill="#ebedf0"><title>2025-11-23: 0 tokens</title></rect>
  <rect x="318" y="96" width="11" height="11" rx="2" fill="#ebedf0"><title>2025-11-24: 0 tokens</title></rect>
  <rect x="318" y="110" width="11" height="11" rx="2" fill="#ebedf0"><title>2025-11-25: 0 tokens</title></rect>
  <rect x="318" y="124" width="11" height="11" rx="2" fill="#ebedf0"><title>2025-11-26: 0 tokens</title></rect>
  <rect x="318" y="138" width="11" height="11" rx="2" fill="#ebedf0"><title>2025-11-27: 0 tokens</title></rect>
  <rect x="318" y="152" width="11" height="11" rx="2" fill="#ebedf0"><title>2025-11-28: 0 tokens</title></rect>
  <rect x="318" y="166" width="11" height="11" rx="2" fill="#ebedf0"><title>2025-11-29: 0 tokens</title></rect>
  <rect x="332" y="82" width="11" height="11" rx="2" fill="#ebedf0"><title>2025-11-30: 0 tokens</title></rect>
  <rect x="332" y="96" width="11" height="11" rx="2" fill="#ebedf0"><title>2025-12-01: 0 tokens</title></rect>
  <rect x="332" y="110" width="11" height="11" rx="2" fill="#ebedf0"><title>2025-12-02: 0 tokens</title></rect>
  <rect x="332" y="124" width="11" height="11" rx="2" fill="#ebedf0"><title>2025-12-03: 0 tokens</title></rect>
  <rect x="332" y="138" width="11" height="11" rx="2" fill="#ebedf0"><title>2025-12-04: 0 tokens</title></rect>
  <rect x="332" y="152" width="11" height="11" rx="2" fill="#ebedf0"><title>2025-12-05: 0 tokens</title></rect>
  <rect x="332" y="166" width="11" height="11" rx="2" fill="#ebedf0"><title>2025-12-06: 0 tokens</title></rect>
  <rect x="346" y="82" width="11" height="11" rx="2" fill="#ebedf0"><title>2025-12-07: 0 tokens</title></rect>
  <rect x="346" y="96" width="11" height="11" rx="2" fill="#ebedf0"><title>2025-12-08: 0 tokens</title></rect>
  <rect x="346" y="110" width="11" height="11" rx="2" fill="#ebedf0"><title>2025-12-09: 0 tokens</title></rect>
  <rect x="346" y="124" width="11" height="11" rx="2" fill="#ebedf0"><title>2025-12-10: 0 tokens</title></rect>
  <rect x="346" y="138" width="11" height="11" rx="2" fill="#ebedf0"><title>2025-12-11: 0 tokens</title></rect>
  <rect x="346" y="152" width="11" height="11" rx="2" fill="#ebedf0"><title>2025-12-12: 0 tokens</title></rect>
  <rect x="346" y="166" width="11" height="11" rx="2" fill="#ebedf0"><title>2025-12-13: 0 tokens</title></rect>
  <rect x="360" y="82" width="11" height="11" rx="2" fill="#ebedf0"><title>2025-12-14: 0 tokens</title></rect>
  <rect x="360" y="96" width="11" height="11" rx="2" fill="#ebedf0"><title>2025-12-15: 0 tokens</title></rect>
  <rect x="360" y="110" width="11" height="11" rx="2" fill="#ebedf0"><title>2025-12-16: 0 tokens</title></rect>
  <rect x="360" y="124" width="11" height="11" rx="2" fill="#ebedf0"><title>2025-12-17: 0 tokens</title></rect>
  <rect x="360" y="138" width="11" height="11" rx="2" fill="#ebedf0"><title>2025-12-18: 0 tokens</title></rect>
  <rect x="360" y="152" width="11" height="11" rx="2" fill="#ebedf0"><title>2025-12-19: 0 tokens</title></rect>
  <rect x="360" y="166" width="11" height="11" rx="2" fill="#ebedf0"><title>2025-12-20: 0 tokens</title></rect>
  <rect x="374" y="82" width="11" height="11" rx="2" fill="#ebedf0"><title>2025-12-21: 0 tokens</title></rect>
  <rect x="374" y="96" width="11" height="11" rx="2" fill="#ebedf0"><title>2025-12-22: 0 tokens</title></rect>
  <rect x="374" y="110" width="11" height="11" rx="2" fill="#ebedf0"><title>2025-12-23: 0 tokens</title></rect>
  <rect x="374" y="124" width="11" height="11" rx="2" fill="#ebedf0"><title>2025-12-24: 0 tokens</title></rect>
  <rect x="374" y="138" width="11" height="11" rx="2" fill="#ebedf0"><title>2025-12-25: 0 tokens</title></rect>
  <rect x="374" y="152" width="11" height="11" rx="2" fill="#ebedf0"><title>2025-12-26: 0 tokens</title></rect>
  <rect x="374" y="166" width="11" height="11" rx="2" fill="#ebedf0"><title>2025-12-27: 0 tokens</title></rect>
  <rect x="388" y="82" width="11" height="11" rx="2" fill="#ebedf0"><title>2025-12-28: 0 tokens</title></rect>
  <rect x="388" y="96" width="11" height="11" rx="2" fill="#ebedf0"><title>2025-12-29: 0 tokens</title></rect>
  <rect x="388" y="110" width="11" height="11" rx="2" fill="#ebedf0"><title>2025-12-30: 0 tokens</title></rect>
  <rect x="388" y="124" width="11" height="11" rx="2" fill="#ebedf0"><title>2025-12-31: 0 tokens</title></rect>
  <rect x="388" y="138" width="11" height="11" rx="2" fill="#ebedf0"><title>2026-01-01: 0 tokens</title></rect>
  <rect x="388" y="152" width="11" height="11" rx="2" fill="#ebedf0"><title>2026-01-02: 0 tokens</title></rect>
  <rect x="388" y="166" width="11" height="11" rx="2" fill="#ebedf0"><title>2026-01-03: 0 tokens</title></rect>
  <rect x="402" y="82" width="11" height="11" rx="2" fill="#ebedf0"><title>2026-01-04: 0 tokens</title></rect>
  <rect x="402" y="96" width="11" height="11" rx="2" fill="#ebedf0"><title>2026-01-05: 0 tokens</title></rect>
  <rect x="402" y="110" width="11" height="11" rx="2" fill="#ebedf0"><title>2026-01-06: 0 tokens</title></rect>
  <rect x="402" y="124" width="11" height="11" rx="2" fill="#9be9a8"><title>2026-01-07: 13,335 tokens</title></rect>
  <rect x="402" y="138" width="11" height="11" rx="2" fill="#ebedf0"><title>2026-01-08: 0 tokens</title></rect>
  <rect x="402" y="152" width="11" height="11" rx="2" fill="#ebedf0"><title>2026-01-09: 0 tokens</title></rect>
  <rect x="402" y="166" width="11" height="11" rx="2" fill="#ebedf0"><title>2026-01-10: 0 tokens</title></rect>
  <rect x="416" y="82" width="11" height="11" rx="2" fill="#ebedf0"><title>2026-01-11: 0 tokens</title></rect>
  <rect x="416" y="96" width="11" height="11" rx="2" fill="#ebedf0"><title>2026-01-12: 0 tokens</title></rect>
  <rect x="416" y="110" width="11" height="11" rx="2" fill="#ebedf0"><title>2026-01-13: 0 tokens</title></rect>
  <rect x="416" y="124" width="11" height="11" rx="2" fill="#ebedf0"><title>2026-01-14: 0 tokens</title></rect>
  <rect x="416" y="138" width="11" height="11" rx="2" fill="#ebedf0"><title>2026-01-15: 0 tokens</title></rect>
  <rect x="416" y="152" width="11" height="11" rx="2" fill="#ebedf0"><title>2026-01-16: 0 tokens</title></rect>
  <rect x="416" y="166" width="11" height="11" rx="2" fill="#ebedf0"><title>2026-01-17: 0 tokens</title></rect>
  <rect x="430" y="82" width="11" height="11" rx="2" fill="#ebedf0"><title>2026-01-18: 0 tokens</title></rect>
  <rect x="430" y="96" width="11" height="11" rx="2" fill="#ebedf0"><title>2026-01-19: 0 tokens</title></rect>
  <rect x="430" y="110" width="11" height="11" rx="2" fill="#ebedf0"><title>2026-01-20: 0 tokens</title></rect>
  <rect x="430" y="124" width="11" height="11" rx="2" fill="#ebedf0"><title>2026-01-21: 0 tokens</title></rect>
  <rect x="430" y="138" width="11" height="11" rx="2" fill="#ebedf0"><title>2026-01-22: 0 tokens</title></rect>
  <rect x="430" y="152" width="11" height="11" rx="2" fill="#ebedf0"><title>2026-01-23: 0 tokens</title></rect>
  <rect x="430" y="166" width="11" height="11" rx="2" fill="#9be9a8"><title>2026-01-24: 4,641 tokens</title></rect>
  <rect x="444" y="82" width="11" height="11" rx="2" fill="#9be9a8"><title>2026-01-25: 1,605,720 tokens</title></rect>
  <rect x="444" y="96" width="11" height="11" rx="2" fill="#9be9a8"><title>2026-01-26: 146,900 tokens</title></rect>
  <rect x="444" y="110" width="11" height="11" rx="2" fill="#9be9a8"><title>2026-01-27: 553,683 tokens</title></rect>
  <rect x="444" y="124" width="11" height="11" rx="2" fill="#9be9a8"><title>2026-01-28: 2,118,245 tokens</title></rect>
  <rect x="444" y="138" width="11" height="11" rx="2" fill="#ebedf0"><title>2026-01-29: 0 tokens</title></rect>
  <rect x="444" y="152" width="11" height="11" rx="2" fill="#ebedf0"><title>2026-01-30: 0 tokens</title></rect>
  <rect x="444" y="166" width="11" height="11" rx="2" fill="#ebedf0"><title>2026-01-31: 0 tokens</title></rect>
  <rect x="458" y="82" width="11" height="11" rx="2" fill="#ebedf0"><title>2026-02-01: 0 tokens</title></rect>
  <rect x="458" y="96" width="11" height="11" rx="2" fill="#ebedf0"><title>2026-02-02: 0 tokens</title></rect>
  <rect x="458" y="110" width="11" height="11" rx="2" fill="#ebedf0"><title>2026-02-03: 0 tokens</title></rect>
  <rect x="458" y="124" width="11" height="11" rx="2" fill="#ebedf0"><title>2026-02-04: 0 tokens</title></rect>
  <rect x="458" y="138" width="11" height="11" rx="2" fill="#9be9a8"><title>2026-02-05: 199,609 tokens</title></rect>
  <rect x="458" y="152" width="11" height="11" rx="2" fill="#ebedf0"><title>2026-02-06: 0 tokens</title></rect>
  <rect x="458" y="166" width="11" height="11" rx="2" fill="#ebedf0"><title>2026-02-07: 0 tokens</title></rect>
  <rect x="472" y="82" width="11" height="11" rx="2" fill="#9be9a8"><title>2026-02-08: 250,987 tokens</title></rect>
  <rect x="472" y="96" width="11" height="11" rx="2" fill="#ebedf0"><title>2026-02-09: 0 tokens</title></rect>
  <rect x="472" y="110" width="11" height="11" rx="2" fill="#ebedf0"><title>2026-02-10: 0 tokens</title></rect>
  <rect x="472" y="124" width="11" height="11" rx="2" fill="#ebedf0"><title>2026-02-11: 0 tokens</title></rect>
  <rect x="472" y="138" width="11" height="11" rx="2" fill="#ebedf0"><title>2026-02-12: 0 tokens</title></rect>
  <rect x="472" y="152" width="11" height="11" rx="2" fill="#ebedf0"><title>2026-02-13: 0 tokens</title></rect>
  <rect x="472" y="166" width="11" height="11" rx="2" fill="#ebedf0"><title>2026-02-14: 0 tokens</title></rect>
  <rect x="486" y="82" width="11" height="11" rx="2" fill="#ebedf0"><title>2026-02-15: 0 tokens</title></rect>
  <rect x="486" y="96" width="11" height="11" rx="2" fill="#ebedf0"><title>2026-02-16: 0 tokens</title></rect>
  <rect x="486" y="110" width="11" height="11" rx="2" fill="#ebedf0"><title>2026-02-17: 0 tokens</title></rect>
  <rect x="486" y="124" width="11" height="11" rx="2" fill="#ebedf0"><title>2026-02-18: 0 tokens</title></rect>
  <rect x="486" y="138" width="11" height="11" rx="2" fill="#ebedf0"><title>2026-02-19: 0 tokens</title></rect>
  <rect x="486" y="152" width="11" height="11" rx="2" fill="#ebedf0"><title>2026-02-20: 0 tokens</title></rect>
  <rect x="486" y="166" width="11" height="11" rx="2" fill="#ebedf0"><title>2026-02-21: 0 tokens</title></rect>
  <rect x="500" y="82" width="11" height="11" rx="2" fill="#ebedf0"><title>2026-02-22: 0 tokens</title></rect>
  <rect x="500" y="96" width="11" height="11" rx="2" fill="#ebedf0"><title>2026-02-23: 0 tokens</title></rect>
  <rect x="500" y="110" width="11" height="11" rx="2" fill="#ebedf0"><title>2026-02-24: 0 tokens</title></rect>
  <rect x="500" y="124" width="11" height="11" rx="2" fill="#ebedf0"><title>2026-02-25: 0 tokens</title></rect>
  <rect x="500" y="138" width="11" height="11" rx="2" fill="#ebedf0"><title>2026-02-26: 0 tokens</title></rect>
  <rect x="500" y="152" width="11" height="11" rx="2" fill="#ebedf0"><title>2026-02-27: 0 tokens</title></rect>
  <rect x="500" y="166" width="11" height="11" rx="2" fill="#ebedf0"><title>2026-02-28: 0 tokens</title></rect>
  <rect x="514" y="82" width="11" height="11" rx="2" fill="#ebedf0"><title>2026-03-01: 0 tokens</title></rect>
  <rect x="514" y="96" width="11" height="11" rx="2" fill="#ebedf0"><title>2026-03-02: 0 tokens</title></rect>
  <rect x="514" y="110" width="11" height="11" rx="2" fill="#ebedf0"><title>2026-03-03: 0 tokens</title></rect>
  <rect x="514" y="124" width="11" height="11" rx="2" fill="#9be9a8"><title>2026-03-04: 6,927,031 tokens</title></rect>
  <rect x="514" y="138" width="11" height="11" rx="2" fill="#9be9a8"><title>2026-03-05: 388,423 tokens</title></rect>
  <rect x="514" y="152" width="11" height="11" rx="2" fill="#ebedf0"><title>2026-03-06: 0 tokens</title></rect>
  <rect x="514" y="166" width="11" height="11" rx="2" fill="#ebedf0"><title>2026-03-07: 0 tokens</title></rect>
  <rect x="528" y="82" width="11" height="11" rx="2" fill="#ebedf0"><title>2026-03-08: 0 tokens</title></rect>
  <rect x="528" y="96" width="11" height="11" rx="2" fill="#ebedf0"><title>2026-03-09: 0 tokens</title></rect>
  <rect x="528" y="110" width="11" height="11" rx="2" fill="#ebedf0"><title>2026-03-10: 0 tokens</title></rect>
  <rect x="528" y="124" width="11" height="11" rx="2" fill="#ebedf0"><title>2026-03-11: 0 tokens</title></rect>
  <rect x="528" y="138" width="11" height="11" rx="2" fill="#ebedf0"><title>2026-03-12: 0 tokens</title></rect>
  <rect x="528" y="152" width="11" height="11" rx="2" fill="#ebedf0"><title>2026-03-13: 0 tokens</title></rect>
  <rect x="528" y="166" width="11" height="11" rx="2" fill="#ebedf0"><title>2026-03-14: 0 tokens</title></rect>
  <rect x="542" y="82" width="11" height="11" rx="2" fill="#ebedf0"><title>2026-03-15: 0 tokens</title></rect>
  <rect x="542" y="96" width="11" height="11" rx="2" fill="#9be9a8"><title>2026-03-16: 6,954,239 tokens</title></rect>
  <rect x="542" y="110" width="11" height="11" rx="2" fill="#9be9a8"><title>2026-03-17: 26,213,007 tokens</title></rect>
  <rect x="542" y="124" width="11" height="11" rx="2" fill="#9be9a8"><title>2026-03-18: 42,813,478 tokens</title></rect>
  <rect x="542" y="138" width="11" height="11" rx="2" fill="#9be9a8"><title>2026-03-19: 239,788 tokens</title></rect>
  <rect x="542" y="152" width="11" height="11" rx="2" fill="#9be9a8"><title>2026-03-20: 15,799,255 tokens</title></rect>
  <rect x="542" y="166" width="11" height="11" rx="2" fill="#9be9a8"><title>2026-03-21: 9,373,374 tokens</title></rect>
  <rect x="556" y="82" width="11" height="11" rx="2" fill="#9be9a8"><title>2026-03-22: 1,555,942 tokens</title></rect>
  <rect x="556" y="96" width="11" height="11" rx="2" fill="#ebedf0"><title>2026-03-23: 0 tokens</title></rect>
  <rect x="556" y="110" width="11" height="11" rx="2" fill="#9be9a8"><title>2026-03-24: 1,213,547 tokens</title></rect>
  <rect x="556" y="124" width="11" height="11" rx="2" fill="#ebedf0"><title>2026-03-25: 0 tokens</title></rect>
  <rect x="556" y="138" width="11" height="11" rx="2" fill="#9be9a8"><title>2026-03-26: 74,364 tokens</title></rect>
  <rect x="556" y="152" width="11" height="11" rx="2" fill="#9be9a8"><title>2026-03-27: 11,618,460 tokens</title></rect>
  <rect x="556" y="166" width="11" height="11" rx="2" fill="#9be9a8"><title>2026-03-28: 8,146,733 tokens</title></rect>
  <rect x="570" y="82" width="11" height="11" rx="2" fill="#9be9a8"><title>2026-03-29: 14,094,506 tokens</title></rect>
  <rect x="570" y="96" width="11" height="11" rx="2" fill="#9be9a8"><title>2026-03-30: 1,008,114 tokens</title></rect>
  <rect x="570" y="110" width="11" height="11" rx="2" fill="#ebedf0"><title>2026-03-31: 0 tokens</title></rect>
  <rect x="570" y="124" width="11" height="11" rx="2" fill="#9be9a8"><title>2026-04-01: 4,213,539 tokens</title></rect>
  <rect x="570" y="138" width="11" height="11" rx="2" fill="#9be9a8"><title>2026-04-02: 1,308,247 tokens</title></rect>
  <rect x="570" y="152" width="11" height="11" rx="2" fill="#ebedf0"><title>2026-04-03: 0 tokens</title></rect>
  <rect x="570" y="166" width="11" height="11" rx="2" fill="#ebedf0"><title>2026-04-04: 0 tokens</title></rect>
  <rect x="584" y="82" width="11" height="11" rx="2" fill="#9be9a8"><title>2026-04-05: 7,410,890 tokens</title></rect>
  <rect x="584" y="96" width="11" height="11" rx="2" fill="#9be9a8"><title>2026-04-06: 2,286,852 tokens</title></rect>
  <rect x="584" y="110" width="11" height="11" rx="2" fill="#9be9a8"><title>2026-04-07: 2,574,522 tokens</title></rect>
  <rect x="584" y="124" width="11" height="11" rx="2" fill="#9be9a8"><title>2026-04-08: 4,173,328 tokens</title></rect>
  <rect x="584" y="138" width="11" height="11" rx="2" fill="#9be9a8"><title>2026-04-09: 2,120,504 tokens</title></rect>
  <rect x="584" y="152" width="11" height="11" rx="2" fill="#9be9a8"><title>2026-04-10: 950,041 tokens</title></rect>
  <rect x="584" y="166" width="11" height="11" rx="2" fill="#9be9a8"><title>2026-04-11: 285,427 tokens</title></rect>
  <rect x="598" y="82" width="11" height="11" rx="2" fill="#9be9a8"><title>2026-04-12: 477,788 tokens</title></rect>
  <rect x="598" y="96" width="11" height="11" rx="2" fill="#9be9a8"><title>2026-04-13: 5,286,744 tokens</title></rect>
  <rect x="598" y="110" width="11" height="11" rx="2" fill="#9be9a8"><title>2026-04-14: 1,949,145 tokens</title></rect>
  <rect x="598" y="124" width="11" height="11" rx="2" fill="#9be9a8"><title>2026-04-15: 935,483 tokens</title></rect>
  <rect x="598" y="138" width="11" height="11" rx="2" fill="#9be9a8"><title>2026-04-16: 9,420,095 tokens</title></rect>
  <rect x="598" y="152" width="11" height="11" rx="2" fill="#9be9a8"><title>2026-04-17: 1,230,045 tokens</title></rect>
  <rect x="598" y="166" width="11" height="11" rx="2" fill="#9be9a8"><title>2026-04-18: 1,807,442 tokens</title></rect>
  <rect x="612" y="82" width="11" height="11" rx="2" fill="#9be9a8"><title>2026-04-19: 4,263,843 tokens</title></rect>
  <rect x="612" y="96" width="11" height="11" rx="2" fill="#9be9a8"><title>2026-04-20: 12,308,907 tokens</title></rect>
  <rect x="612" y="110" width="11" height="11" rx="2" fill="#9be9a8"><title>2026-04-21: 56,838,746 tokens</title></rect>
  <rect x="612" y="124" width="11" height="11" rx="2" fill="#9be9a8"><title>2026-04-22: 2,274,085 tokens</title></rect>
  <rect x="612" y="138" width="11" height="11" rx="2" fill="#9be9a8"><title>2026-04-23: 6,257,074 tokens</title></rect>
  <rect x="612" y="152" width="11" height="11" rx="2" fill="#9be9a8"><title>2026-04-24: 17,888,260 tokens</title></rect>
  <rect x="612" y="166" width="11" height="11" rx="2" fill="#9be9a8"><title>2026-04-25: 87,923,828 tokens</title></rect>
  <rect x="626" y="82" width="11" height="11" rx="2" fill="#9be9a8"><title>2026-04-26: 41,966,680 tokens</title></rect>
  <rect x="626" y="96" width="11" height="11" rx="2" fill="#40c463"><title>2026-04-27: 325,993,120 tokens</title></rect>
  <rect x="626" y="110" width="11" height="11" rx="2" fill="#9be9a8"><title>2026-04-28: 229,995,465 tokens</title></rect>
  <rect x="626" y="124" width="11" height="11" rx="2" fill="#40c463"><title>2026-04-29: 265,004,056 tokens</title></rect>
  <rect x="626" y="138" width="11" height="11" rx="2" fill="#9be9a8"><title>2026-04-30: 165,158,365 tokens</title></rect>
  <rect x="626" y="152" width="11" height="11" rx="2" fill="#40c463"><title>2026-05-01: 579,433,980 tokens</title></rect>
  <rect x="626" y="166" width="11" height="11" rx="2" fill="#9be9a8"><title>2026-05-02: 73,724,350 tokens</title></rect>
  <rect x="640" y="82" width="11" height="11" rx="2" fill="#9be9a8"><title>2026-05-03: 44,120,314 tokens</title></rect>
  <rect x="640" y="96" width="11" height="11" rx="2" fill="#9be9a8"><title>2026-05-04: 3,103,696 tokens</title></rect>
  <rect x="640" y="110" width="11" height="11" rx="2" fill="#9be9a8"><title>2026-05-05: 2,229,255 tokens</title></rect>
  <rect x="640" y="124" width="11" height="11" rx="2" fill="#9be9a8"><title>2026-05-06: 33,824,331 tokens</title></rect>
  <rect x="640" y="138" width="11" height="11" rx="2" fill="#9be9a8"><title>2026-05-07: 16,528,724 tokens</title></rect>
  <rect x="640" y="152" width="11" height="11" rx="2" fill="#9be9a8"><title>2026-05-08: 11,242,204 tokens</title></rect>
  <rect x="640" y="166" width="11" height="11" rx="2" fill="#9be9a8"><title>2026-05-09: 35,113,703 tokens</title></rect>
  <rect x="654" y="82" width="11" height="11" rx="2" fill="#9be9a8"><title>2026-05-10: 65,713,451 tokens</title></rect>
  <rect x="654" y="96" width="11" height="11" rx="2" fill="#9be9a8"><title>2026-05-11: 44,440,204 tokens</title></rect>
  <rect x="654" y="110" width="11" height="11" rx="2" fill="#9be9a8"><title>2026-05-12: 25,251,636 tokens</title></rect>
  <rect x="654" y="124" width="11" height="11" rx="2" fill="#9be9a8"><title>2026-05-13: 64,548,223 tokens</title></rect>
  <rect x="654" y="138" width="11" height="11" rx="2" fill="#9be9a8"><title>2026-05-14: 109,713,957 tokens</title></rect>
  <rect x="654" y="152" width="11" height="11" rx="2" fill="#9be9a8"><title>2026-05-15: 119,669,524 tokens</title></rect>
  <rect x="654" y="166" width="11" height="11" rx="2" fill="#9be9a8"><title>2026-05-16: 236,198,005 tokens</title></rect>
  <rect x="668" y="82" width="11" height="11" rx="2" fill="#9be9a8"><title>2026-05-17: 103,694,103 tokens</title></rect>
  <rect x="668" y="96" width="11" height="11" rx="2" fill="#40c463"><title>2026-05-18: 342,615,380 tokens</title></rect>
  <rect x="668" y="110" width="11" height="11" rx="2" fill="#9be9a8"><title>2026-05-19: 321,621,014 tokens</title></rect>
  <rect x="668" y="124" width="11" height="11" rx="2" fill="#9be9a8"><title>2026-05-20: 143,250,852 tokens</title></rect>
  <rect x="668" y="138" width="11" height="11" rx="2" fill="#9be9a8"><title>2026-05-21: 180,274,022 tokens</title></rect>
  <rect x="668" y="152" width="11" height="11" rx="2" fill="#9be9a8"><title>2026-05-22: 100,445,896 tokens</title></rect>
  <rect x="668" y="166" width="11" height="11" rx="2" fill="#9be9a8"><title>2026-05-23: 18,011,839 tokens</title></rect>
  <rect x="682" y="82" width="11" height="11" rx="2" fill="#40c463"><title>2026-05-24: 206,091,208 tokens</title></rect>
  <rect x="682" y="96" width="11" height="11" rx="2" fill="#9be9a8"><title>2026-05-25: 221,256,479 tokens</title></rect>
  <rect x="682" y="110" width="11" height="11" rx="2" fill="#9be9a8"><title>2026-05-26: 182,872,226 tokens</title></rect>
  <rect x="682" y="124" width="11" height="11" rx="2" fill="#9be9a8"><title>2026-05-27: 64,977,397 tokens</title></rect>
  <rect x="682" y="138" width="11" height="11" rx="2" fill="#9be9a8"><title>2026-05-28: 216,894,220 tokens</title></rect>
  <rect x="682" y="152" width="11" height="11" rx="2" fill="#9be9a8"><title>2026-05-29: 34,338,810 tokens</title></rect>
  <rect x="682" y="166" width="11" height="11" rx="2" fill="#9be9a8"><title>2026-05-30: 211,196,881 tokens</title></rect>
  <rect x="696" y="82" width="11" height="11" rx="2" fill="#9be9a8"><title>2026-05-31: 169,229,435 tokens</title></rect>
  <rect x="696" y="96" width="11" height="11" rx="2" fill="#9be9a8"><title>2026-06-01: 38,860,616 tokens</title></rect>
  <rect x="696" y="110" width="11" height="11" rx="2" fill="#9be9a8"><title>2026-06-02: 25,619,024 tokens</title></rect>
  <rect x="696" y="124" width="11" height="11" rx="2" fill="#9be9a8"><title>2026-06-03: 768,442 tokens</title></rect>
  <rect x="696" y="138" width="11" height="11" rx="2" fill="#9be9a8"><title>2026-06-04: 25,598,657 tokens</title></rect>
  <rect x="696" y="152" width="11" height="11" rx="2" fill="#40c463"><title>2026-06-05: 242,666,736 tokens</title></rect>
  <rect x="696" y="166" width="11" height="11" rx="2" fill="#9be9a8"><title>2026-06-06: 33,779,066 tokens</title></rect>
  <rect x="710" y="82" width="11" height="11" rx="2" fill="#40c463"><title>2026-06-07: 374,097,114 tokens</title></rect>
  <rect x="710" y="96" width="11" height="11" rx="2" fill="#9be9a8"><title>2026-06-08: 1,817,037 tokens</title></rect>
  <rect x="710" y="110" width="11" height="11" rx="2" fill="#9be9a8"><title>2026-06-09: 87,297,400 tokens</title></rect>
  <rect x="710" y="124" width="11" height="11" rx="2" fill="#9be9a8"><title>2026-06-10: 124,910,070 tokens</title></rect>
  <rect x="710" y="138" width="11" height="11" rx="2" fill="#9be9a8"><title>2026-06-11: 23,841,445 tokens</title></rect>
  <rect x="710" y="152" width="11" height="11" rx="2" fill="#9be9a8"><title>2026-06-12: 5,149,636 tokens</title></rect>
  <rect x="710" y="166" width="11" height="11" rx="2" fill="#9be9a8"><title>2026-06-13: 1,223,240 tokens</title></rect>
  <rect x="724" y="82" width="11" height="11" rx="2" fill="#9be9a8"><title>2026-06-14: 19,824,377 tokens</title></rect>
  <rect x="724" y="96" width="11" height="11" rx="2" fill="#9be9a8"><title>2026-06-15: 50,134,433 tokens</title></rect>
  <rect x="724" y="110" width="11" height="11" rx="2" fill="#40c463"><title>2026-06-16: 156,036,894 tokens</title></rect>
  <rect x="724" y="124" width="11" height="11" rx="2" fill="#216e39"><title>2026-06-17: 734,950,199 tokens</title></rect>
  <rect x="724" y="138" width="11" height="11" rx="2" fill="#9be9a8"><title>2026-06-18: 140,951,278 tokens</title></rect>
  <rect x="724" y="152" width="11" height="11" rx="2" fill="#9be9a8"><title>2026-06-19: 207,815,311 tokens</title></rect>
  <rect x="724" y="166" width="11" height="11" rx="2" fill="#9be9a8"><title>2026-06-20: 106,822,331 tokens</title></rect>
  <rect x="738" y="82" width="11" height="11" rx="2" fill="#9be9a8"><title>2026-06-21: 126,353,675 tokens</title></rect>
  <rect x="738" y="96" width="11" height="11" rx="2" fill="#30a14e"><title>2026-06-22: 676,366,604 tokens</title></rect>
  <rect x="738" y="110" width="11" height="11" rx="2" fill="#9be9a8"><title>2026-06-23: 229,597,368 tokens</title></rect>
  <rect x="738" y="124" width="11" height="11" rx="2" fill="#40c463"><title>2026-06-24: 323,931,644 tokens</title></rect>
  <rect x="738" y="138" width="11" height="11" rx="2" fill="#40c463"><title>2026-06-25: 503,394,301 tokens</title></rect>
  <rect x="738" y="152" width="11" height="11" rx="2" fill="#9be9a8"><title>2026-06-26: 49,696,196 tokens</title></rect>
  <rect x="738" y="166" width="11" height="11" rx="2" fill="#40c463"><title>2026-06-27: 300,367,166 tokens</title></rect>
  <rect x="752" y="82" width="11" height="11" rx="2" fill="#9be9a8"><title>2026-06-28: 94,004,174 tokens</title></rect>
  <rect x="752" y="96" width="11" height="11" rx="2" fill="#9be9a8"><title>2026-06-29: 123,453,549 tokens</title></rect>
  <rect x="752" y="110" width="11" height="11" rx="2" fill="#9be9a8"><title>2026-06-30: 32,951,135 tokens</title></rect>
  <rect x="752" y="124" width="11" height="11" rx="2" fill="#9be9a8"><title>2026-07-01: 111,464,988 tokens</title></rect>
  <rect x="752" y="138" width="11" height="11" rx="2" fill="#9be9a8"><title>2026-07-02: 176,688,003 tokens</title></rect>
  <rect x="752" y="152" width="11" height="11" rx="2" fill="#9be9a8"><title>2026-07-03: 199,904,629 tokens</title></rect>
  <rect x="752" y="166" width="11" height="11" rx="2" fill="#9be9a8"><title>2026-07-04: 187,932,950 tokens</title></rect>
  <rect x="766" y="82" width="11" height="11" rx="2" fill="#30a14e"><title>2026-07-05: 446,174,733 tokens</title></rect>
  <rect x="766" y="96" width="11" height="11" rx="2" fill="#40c463"><title>2026-07-06: 311,466,048 tokens</title></rect>
  <rect x="766" y="110" width="11" height="11" rx="2" fill="#9be9a8"><title>2026-07-07: 215,500,509 tokens</title></rect>
  <rect x="766" y="124" width="11" height="11" rx="2" fill="#9be9a8"><title>2026-07-08: 67,709,616 tokens</title></rect>
  <rect x="766" y="138" width="11" height="11" rx="2" fill="#9be9a8"><title>2026-07-09: 30,247,112 tokens</title></rect>
  <rect x="766" y="152" width="11" height="11" rx="2" fill="#9be9a8"><title>2026-07-10: 45,659,240 tokens</title></rect>
  <rect x="766" y="166" width="11" height="11" rx="2" fill="#9be9a8"><title>2026-07-11: 118,575,874 tokens</title></rect>
  <rect x="780" y="82" width="11" height="11" rx="2" fill="#30a14e"><title>2026-07-12: 810,180,127 tokens</title></rect>
  <rect x="780" y="96" width="11" height="11" rx="2" fill="#30a14e"><title>2026-07-13: 499,974,576 tokens</title></rect>
  <rect x="780" y="110" width="11" height="11" rx="2" fill="#30a14e"><title>2026-07-14: 401,716,386 tokens</title></rect>
  <rect x="780" y="124" width="11" height="11" rx="2" fill="#40c463"><title>2026-07-15: 281,389,251 tokens</title></rect>
  <rect x="780" y="138" width="11" height="11" rx="2" fill="#9be9a8"><title>2026-07-16: 58,033,193 tokens</title></rect>
  <rect x="780" y="152" width="11" height="11" rx="2" fill="#9be9a8"><title>2026-07-17: 69,763,450 tokens</title></rect>
  <rect x="780" y="166" width="11" height="11" rx="2" fill="#40c463"><title>2026-07-18: 313,025,809 tokens</title></rect>
  <rect x="794" y="82" width="11" height="11" rx="2" fill="#30a14e"><title>2026-07-19: 785,448,775 tokens</title></rect>
  <rect x="794" y="96" width="11" height="11" rx="2" fill="#9be9a8"><title>2026-07-20: 182,658,452 tokens</title></rect>
  <text x="710" y="208" class="muted">Less</text>
  <rect x="748" y="198" width="11" height="11" rx="2" fill="#ebedf0"/>
  <rect x="765" y="198" width="11" height="11" rx="2" fill="#9be9a8"/>
  <rect x="782" y="198" width="11" height="11" rx="2" fill="#40c463"/>
  <rect x="799" y="198" width="11" height="11" rx="2" fill="#30a14e"/>
  <rect x="816" y="198" width="11" height="11" rx="2" fill="#216e39"/>
  <text x="842" y="208" class="muted">More</text>
</svg>
